<svg xmlns="http://www.w3.org/2000/svg" width="30.671" height="30.671" viewBox="0 0 30.671 30.671">
  <g id="Buy_Now_Icon" data-name="Buy Now Icon" transform="translate(0.75 0.75)">
    <path id="Path_22" data-name="Path 22" d="M27.519,14.934V5.652H3.652A2.651,2.651,0,0,1,1,3V25.541a3.978,3.978,0,0,0,3.978,3.978H27.519V20.237" transform="translate(-1 -0.348)" fill="none" stroke="#2b2b2b" stroke-linecap="square" stroke-width="1.5"/>
    <path id="Path_23" data-name="Path 23" d="M22.215,2.326V1H3.652A2.651,2.651,0,0,0,1,3.652H1A2.651,2.651,0,0,0,3.652,6.3" transform="translate(-1 -1)" fill="none" stroke="#2b2b2b" stroke-linecap="square" stroke-width="1.5"/>
    <path id="Path_24" data-name="Path 24" d="M25.282,17.3h-6.63A2.651,2.651,0,0,1,16,14.652h0A2.651,2.651,0,0,1,18.652,12h6.63Z" transform="translate(3.889 2.586)" fill="none" stroke="#2b2b2b" stroke-linecap="square" stroke-width="1.5"/>
  </g>
</svg>
