<svg xmlns="http://www.w3.org/2000/svg" width="120.683" height="103.668" viewBox="0 0 120.683 103.668">
  <g id="Group_10354" data-name="Group 10354" transform="translate(-1224 -3659)">
    <rect id="Rectangle_3902" data-name="Rectangle 3902" width="103.668" height="103.668" rx="22" transform="translate(1241.016 3659)" fill="#8a7200" opacity="0.1"/>
    <path id="Path_735" data-name="Path 735" d="M253.183,3303.847H231.538" transform="translate(994.962 371.546)" fill="none" stroke="#ffc432" stroke-linecap="round" stroke-width="5"/>
    <path id="Path_736" data-name="Path 736" d="M242.361,3303.847H231.538" transform="translate(1005.962 383.394)" fill="none" stroke="#ffc432" stroke-linecap="round" stroke-width="5"/>
    <path id="Icon_awesome-money-bill-wave-alt" data-name="Icon awesome-money-bill-wave-alt" d="M46.777,3.941A22.3,22.3,0,0,0,38.011,2.25c-9.276,0-18.55,4.695-27.826,4.695A22.849,22.849,0,0,1,3.208,5.911a2.575,2.575,0,0,0-.779-.122A2.4,2.4,0,0,0,0,8.185V32.077A2.4,2.4,0,0,0,1.419,34.3a22.288,22.288,0,0,0,8.766,1.692c9.276,0,18.551-4.7,27.826-4.7a22.849,22.849,0,0,1,6.977,1.033,2.575,2.575,0,0,0,.779.122,2.4,2.4,0,0,0,2.429-2.4V6.161a2.4,2.4,0,0,0-1.42-2.219ZM24.1,26.348c-3.328,0-6.025-3.237-6.025-7.229s2.7-7.229,6.025-7.229,6.025,3.237,6.025,7.229S27.424,26.348,24.1,26.348Z" transform="translate(1268.751 3691.715)" fill="#393960"/>
  </g>
</svg>
