<svg xmlns="http://www.w3.org/2000/svg" width="120.668" height="103.668" viewBox="0 0 120.668 103.668">
  <g id="Group_133" data-name="Group 133" transform="translate(16 4)">
    <rect id="Rectangle_133" data-name="Rectangle 133" width="103.668" height="103.668" rx="22" transform="translate(1 -4)" fill="#8a7200" opacity="0.1"/>
    <g id="Group_10" data-name="Group 10" transform="translate(8.132 14.115)">
      <g id="user" transform="translate(26.867 15.885)">
        <path id="Path_4" data-name="Path 4" d="M37.573,32.385v1.63a3.607,3.607,0,0,1-3.557,3.557H5.557A3.607,3.607,0,0,1,2,34.016v-1.63c0-4.3,5.04-6.966,9.783-9.042l.445-.222a1.188,1.188,0,0,1,1.112.074,11.5,11.5,0,0,0,6.374,1.927A11.93,11.93,0,0,0,26.086,23.2a1.188,1.188,0,0,1,1.112-.074l.445.222C32.534,25.419,37.573,28.013,37.573,32.385ZM19.787,2c4.891,0,8.819,4.373,8.819,9.783s-3.928,9.783-8.819,9.783-8.819-4.373-8.819-9.783S14.9,2,19.787,2Z" transform="translate(-2 -2)" fill="#393960"/>
      </g>
    </g>
    <path id="Path_26" data-name="Path 26" d="M253.183,3303.847H231.538" transform="translate(-245.039 -3291.454)" fill="none" stroke="#ffc432" stroke-linecap="round" stroke-width="5"/>
    <path id="Path_27" data-name="Path 27" d="M242.361,3303.847H231.538" transform="translate(-234.039 -3279.606)" fill="none" stroke="#ffc432" stroke-linecap="round" stroke-width="5"/>
  </g>
</svg>
