<svg xmlns="http://www.w3.org/2000/svg" width="312.453" height="581.799" viewBox="0 0 312.453 581.799">
  <g id="Group_2369" data-name="Group 2369" transform="translate(-1678.636 -1325.008)" opacity="0.45">
    <g id="noun-paw-3699370" transform="matrix(0.848, 0.53, -0.53, 0.848, 1818.48, 1586.69)" opacity="0.03">
      <path id="Path_5" data-name="Path 5" d="M343.647,313l-.816-2.719-1.632-4.353-1.087-2.721-2.992-5.44-4.081-5.169-5.44-4.9-6.256-5.713-5.169-4.9-4.9-5.442-4.081-5.44-3.808-5.712-4.08-7.617-2.45-5.169L293.867,242l-3.808-6.256-4.351-5.713-2.992-2.992-2.992-2.719-4.081-2.992-4.9-2.176-6.256-2.176-6.258-.816H251.7l-6.258.816-8.975,3.264-8.706,5.985-5.713,5.713-3.535,5.44-3.537,6.256-4.624,9.522L206,261.587l-4.9,6.529-5.985,7.617-17.682,16.32-1.632,1.361-4.08,5.713-3.264,6.528-1.905,8.161-1.087,7.345-.273,8.161.816,5.44,2.45,7.617L172,349.451l3.808,4.9,4.9,4.9,6.528,4.353,7.617,3.537,5.713,1.361,8.706.271,8.432-1.905,5.169-2.448,2.175-1.632,4.9-2.721,4.624-2.719,4.08-2.448L243,352.987l3.537-1.632,4.08-1.089,4.353-.271,5.169.816,3.808.816,6.256,2.992,7.617,3.808,6.258,4.081,5.712,3.264,5.713,2.448,5.44,1.089,4.624.271,3.808-.271,5.985-1.634,7.617-3.535,5.44-3.808,5.714-5.713,4.08-5.44,3.537-7.345,2.176-7.072.816-5.984v-6.256l-.273-3.537Z" transform="translate(-132.671 -124.618)"/>
      <path id="Path_6" data-name="Path 6" d="M400.8,28.053C416.933,29.76,428.041,49.8,425.608,72.8s-17.489,40.278-33.625,38.57-27.242-21.743-24.81-44.752,17.489-40.278,33.625-38.57" transform="translate(-236.363 -27.826)"/>
      <path id="Path_7" data-name="Path 7" d="M270.1,66.395c2.434,23.009-8.673,43.046-24.809,44.752S214.1,95.586,211.663,72.577s8.673-43.044,24.809-44.752,31.191,15.563,33.624,38.57" transform="translate(-156.393 -27.709)"/>
      <path id="Path_8" data-name="Path 8" d="M516.99,163.375c15.838,3.527,24.625,24.576,19.629,47.012s-21.888,37.766-37.726,34.238-24.625-24.576-19.627-47.012,21.888-37.766,37.724-34.238" transform="translate(-293.457 -97.215)"/>
      <path id="Path_9" data-name="Path 9" d="M156.99,197.6c5,22.436-3.791,43.485-19.629,47.012s-32.726-11.8-37.724-34.238,3.791-43.485,19.627-47.012,32.728,11.8,37.726,34.238" transform="translate(-98.235 -97.208)"/>
    </g>
    <g id="noun-paw-3699370-2" data-name="noun-paw-3699370" transform="matrix(0.848, 0.53, -0.53, 0.848, 1780.861, 1295.897)" opacity="0.03">
      <path id="Path_5-2" data-name="Path 5" d="M343.647,313l-.816-2.719-1.632-4.353-1.087-2.721-2.992-5.44-4.081-5.169-5.44-4.9-6.256-5.713-5.169-4.9-4.9-5.442-4.081-5.44-3.808-5.712-4.08-7.617-2.45-5.169L293.867,242l-3.808-6.256-4.351-5.713-2.992-2.992-2.992-2.719-4.081-2.992-4.9-2.176-6.256-2.176-6.258-.816H251.7l-6.258.816-8.975,3.264-8.706,5.985-5.713,5.713-3.535,5.44-3.537,6.256-4.624,9.522L206,261.587l-4.9,6.529-5.985,7.617-17.682,16.32-1.632,1.361-4.08,5.713-3.264,6.528-1.905,8.161-1.087,7.345-.273,8.161.816,5.44,2.45,7.617L172,349.451l3.808,4.9,4.9,4.9,6.528,4.353,7.617,3.537,5.713,1.361,8.706.271,8.432-1.905,5.169-2.448,2.175-1.632,4.9-2.721,4.624-2.719,4.08-2.448L243,352.987l3.537-1.632,4.08-1.089,4.353-.271,5.169.816,3.808.816,6.256,2.992,7.617,3.808,6.258,4.081,5.712,3.264,5.713,2.448,5.44,1.089,4.624.271,3.808-.271,5.985-1.634,7.617-3.535,5.44-3.808,5.714-5.713,4.08-5.44,3.537-7.345,2.176-7.072.816-5.984v-6.256l-.273-3.537Z" transform="translate(-132.671 -124.618)"/>
      <path id="Path_6-2" data-name="Path 6" d="M400.8,28.053C416.933,29.76,428.041,49.8,425.608,72.8s-17.489,40.278-33.625,38.57-27.242-21.743-24.81-44.752,17.489-40.278,33.625-38.57" transform="translate(-236.363 -27.826)"/>
      <path id="Path_7-2" data-name="Path 7" d="M270.1,66.395c2.434,23.009-8.673,43.046-24.809,44.752S214.1,95.586,211.663,72.577s8.673-43.044,24.809-44.752,31.191,15.563,33.624,38.57" transform="translate(-156.393 -27.709)"/>
      <path id="Path_8-2" data-name="Path 8" d="M516.99,163.375c15.838,3.527,24.625,24.576,19.629,47.012s-21.888,37.766-37.726,34.238-24.625-24.576-19.627-47.012,21.888-37.766,37.724-34.238" transform="translate(-293.457 -97.215)"/>
      <path id="Path_9-2" data-name="Path 9" d="M156.99,197.6c5,22.436-3.791,43.485-19.629,47.012s-32.726-11.8-37.724-34.238,3.791-43.485,19.627-47.012,32.728,11.8,37.726,34.238" transform="translate(-98.235 -97.208)"/>
    </g>
  </g>
</svg>
