<?xml version="1.0" standalone="no"?>

<svg version="1.0" xmlns="http://www.w3.org/2000/svg"
 width="112.000000pt" height="112.000000pt" viewBox="0 0 112.000000 112.000000"
 preserveAspectRatio="xMidYMid meet">
<g transform="translate(0.000000,112.000000) scale(0.100000,-0.100000)"
fill="#000000" stroke="none">
<path d="M495 1063 c-67 -8 -174 -55 -230 -101 -58 -46 -138 -149 -129 -164 3
-5 1 -8 -4 -8 -18 0 -46 -124 -46 -205 0 -81 28 -205 46 -205 5 0 7 -4 4 -9
-8 -13 73 -120 121 -161 23 -20 59 -46 82 -58 l41 -23 -10 25 c-6 16 -6 27 0
31 6 4 10 1 10 -5 0 -6 4 -8 10 -5 5 3 10 0 10 -7 0 -9 3 -9 10 2 8 13 10 13
10 -2 0 -9 -7 -24 -16 -32 -8 -9 -11 -16 -5 -16 6 0 17 12 25 28 8 15 15 21
16 14 0 -7 4 -10 10 -7 6 3 10 2 10 -3 0 -6 -7 -12 -15 -16 -23 -8 -18 -26 8
-25 21 0 21 1 2 9 -17 7 -17 9 -2 9 9 1 17 8 17 16 0 8 9 15 20 15 25 0 26
-16 3 -29 -22 -12 -11 -24 25 -28 23 -2 24 -1 7 7 -20 9 -20 9 1 9 11 1 26 -5
33 -12 11 -9 14 -9 18 1 3 6 9 12 14 12 6 0 7 -4 4 -10 -9 -15 41 -12 53 3 7
8 7 18 1 27 -8 13 -10 13 -19 0 -7 -11 -10 -11 -10 -2 0 7 -5 10 -12 6 -7 -4
-8 -3 -4 4 11 18 56 15 56 -3 0 -19 5 -19 75 5 32 11 61 18 63 15 3 -3 1 -5
-4 -5 -6 0 -19 -7 -30 -15 -16 -14 -15 -14 14 0 19 9 30 20 26 27 -5 8 -1 9
10 5 13 -5 34 9 78 51 98 93 145 191 154 320 11 151 -40 282 -149 385 -110
104 -250 149 -402 130z m64 -30 c8 -14 11 -15 11 -3 0 12 3 11 11 -2 6 -11 22
-18 42 -18 44 0 78 -10 71 -21 -6 -10 25 0 46 15 8 6 6 0 -5 -13 l-20 -24 25
13 c14 7 22 9 18 5 -4 -4 4 -14 19 -22 21 -11 28 -11 35 -1 7 10 8 10 7 -2 -1
-8 26 -43 60 -78 40 -41 61 -68 57 -78 -3 -8 -1 -12 4 -9 12 7 43 -64 35 -82
-2 -8 -1 -12 4 -9 13 9 21 -32 21 -114 0 -82 -8 -123 -21 -114 -5 3 -6 -1 -4
-9 7 -16 -20 -82 -46 -116 -10 -13 -16 -28 -12 -34 3 -5 2 -7 -4 -4 -5 4 -23
-7 -38 -23 -15 -16 -33 -27 -39 -24 -6 3 -2 -2 8 -10 11 -9 14 -16 7 -16 -7 0
-10 -4 -6 -9 10 -18 -16 -23 -34 -7 -20 18 -41 21 -41 5 0 -5 6 -7 13 -3 8 4
9 4 2 -3 -5 -5 -29 -18 -53 -28 -37 -16 -45 -17 -54 -4 -8 11 -9 11 -4 -3 4
-15 -1 -18 -30 -18 -19 0 -33 4 -30 8 3 5 -17 8 -44 8 -27 0 -47 -3 -44 -8 6
-9 -41 -10 -73 -2 -13 4 -20 11 -16 17 3 5 1 7 -5 4 -16 -11 -42 3 -42 22 0
14 -2 14 -10 1 -8 -12 -10 -12 -10 5 0 17 -2 17 -10 5 -7 -11 -10 -11 -10 -2
0 7 -4 11 -9 8 -5 -4 -34 17 -65 44 -53 49 -100 119 -112 167 -4 12 -9 21 -13
19 -3 -2 -6 48 -5 112 1 96 5 126 22 164 14 33 17 50 10 54 -7 4 -8 2 -4 -4 4
-7 2 -12 -4 -12 -6 0 -8 -4 -5 -10 3 -5 1 -10 -5 -10 -6 0 -8 -4 -5 -10 3 -5
2 -10 -4 -10 -6 0 -7 -7 -4 -17 4 -10 2 -14 -5 -9 -7 4 -10 -1 -7 -14 2 -11
-1 -20 -7 -20 -6 0 -8 -18 -5 -45 2 -29 0 -45 -7 -45 -6 0 -4 -5 4 -10 13 -9
13 -10 0 -10 -13 0 -13 -1 0 -10 13 -8 12 -10 -2 -10 -21 0 -23 29 -7 116 22
122 97 238 196 301 68 44 100 56 109 41 4 -7 3 -8 -4 -4 -7 4 -12 2 -12 -4 0
-6 -5 -8 -12 -4 -7 5 -8 3 -3 -6 6 -10 4 -12 -9 -7 -11 5 -15 3 -10 -5 5 -8 2
-9 -9 -5 -10 3 -17 2 -17 -4 0 -6 -5 -7 -10 -4 -6 4 -9 2 -8 -3 2 -6 1 -10 -2
-9 -14 2 -49 -25 -47 -36 1 -7 -4 -11 -10 -10 -7 2 -12 -3 -10 -10 1 -7 -6
-11 -16 -9 -13 2 -17 -2 -15 -15 2 -10 -3 -18 -12 -18 -8 0 -14 -8 -14 -18 1
-9 -2 -17 -8 -17 -5 0 -6 -5 -3 -10 3 -6 24 12 45 39 58 73 156 141 182 125 7
-4 8 -3 4 4 -4 7 -1 12 9 12 9 0 14 4 11 8 -3 5 3 8 12 8 56 0 105 5 100 9 -9
9 -78 13 -78 5 0 -5 -10 -5 -22 -2 -19 5 -16 8 22 18 63 17 78 16 89 -3z"/>
<path d="M763 927 c3 -9 2 -17 -3 -17 -6 0 -10 -6 -10 -14 0 -8 -9 -18 -20
-21 -11 -3 -20 -9 -20 -13 0 -8 70 -59 85 -62 20 -4 47 -22 41 -27 -3 -3 -12
0 -21 7 -23 19 -18 -4 6 -26 11 -10 18 -26 16 -36 -3 -9 3 -24 12 -32 14 -12
19 -13 41 -1 14 8 33 14 42 15 27 0 19 46 -10 60 -19 8 -30 7 -49 -5 -14 -9
-28 -14 -31 -10 -4 3 0 10 7 14 7 5 10 14 6 21 -4 7 -2 11 6 9 27 -3 39 1 39
14 0 16 -49 76 -50 60 0 -13 -39 -53 -52 -53 -16 0 -8 36 12 53 24 20 21 28
-22 59 -26 18 -30 19 -25 5z"/>
<path d="M507 850 c-54 -14 -87 -33 -129 -75 -57 -57 -73 -98 -73 -185 1 -85
20 -133 77 -187 40 -39 122 -77 151 -69 11 3 29 0 40 -6 12 -6 17 -6 13 0 -3
5 7 12 24 14 18 3 27 0 24 -6 -3 -6 4 -1 15 12 11 13 17 30 14 38 -4 10 0 12
11 8 12 -5 14 -10 6 -19 -8 -9 -8 -15 0 -20 13 -8 30 3 30 21 0 8 5 14 11 14
5 0 7 -6 3 -12 -5 -10 -3 -10 7 0 12 11 12 14 0 21 -24 15 -6 38 27 33 31 -4
51 11 31 24 -8 5 -9 3 -4 -6 5 -8 4 -11 -3 -6 -15 9 -11 45 5 39 7 -3 13 2 13
12 0 12 5 15 23 9 12 -4 24 -10 27 -13 3 -4 21 -7 42 -6 20 0 34 -3 32 -6 -2
-4 2 -12 10 -18 11 -9 15 -7 20 11 10 37 7 45 -15 51 -20 5 -20 5 -4 -13 16
-18 15 -18 -24 -8 -23 6 -41 15 -41 20 0 6 -5 6 -14 -1 -8 -7 -22 -8 -36 -3
-16 6 -19 11 -12 16 7 4 12 16 12 27 0 12 -4 17 -11 13 -8 -5 -8 -1 0 14 16
31 13 37 -8 18 -17 -16 -18 -15 -15 10 1 14 6 29 10 32 4 4 4 -1 1 -11 -4 -11
-3 -16 3 -12 6 3 10 13 10 21 0 8 5 14 10 14 6 0 11 -24 12 -52 1 -45 2 -47 5
-15 5 46 28 45 28 -1 0 -42 19 -61 45 -44 13 8 20 9 20 1 0 -23 34 -3 37 22 5
36 -17 52 -51 39 -30 -11 -28 -12 -31 17 -1 12 3 20 9 18 6 -2 25 -6 42 -9 29
-4 31 -3 26 20 -2 13 -9 24 -14 24 -6 0 -8 -7 -4 -15 4 -13 2 -13 -14 -5 -11
6 -21 6 -24 1 -3 -5 -15 -7 -26 -4 -11 3 -20 0 -20 -6 0 -26 -18 -7 -43 47
-38 77 -53 94 -117 125 -63 30 -137 40 -193 27z m169 -25 c17 -7 47 -27 68
-45 52 -47 88 -121 51 -106 -10 3 -15 -1 -15 -11 0 -9 -3 -13 -7 -10 -3 4 0
19 8 34 11 20 11 27 2 30 -7 3 -13 9 -13 14 0 17 -64 70 -77 64 -7 -2 -13 1
-13 8 0 17 -55 13 -74 -5 -17 -18 -22 -10 77 -117 18 -19 27 -31 20 -27 -6 3
-14 2 -18 -4 -3 -5 -2 -10 3 -10 6 0 13 -7 16 -16 3 -8 2 -12 -4 -9 -6 4 -7
-5 -4 -23 6 -28 5 -28 -33 -24 -21 3 -41 10 -45 16 -5 6 -8 1 -8 -12 0 -18 4
-22 19 -17 34 11 67 -4 67 -30 0 -13 -3 -22 -7 -19 -10 6 -30 -22 -22 -30 4
-4 -1 -4 -11 0 -11 4 -21 2 -27 -7 -7 -11 -9 -11 -9 -1 0 7 -4 11 -10 7 -5 -3
-7 -12 -4 -19 3 -8 0 -17 -7 -22 -8 -5 -10 -3 -4 5 5 9 0 12 -16 9 -13 -2 -23
-9 -21 -16 1 -8 -2 -11 -8 -7 -8 5 -8 11 0 20 8 10 6 15 -9 20 -12 3 -26 15
-31 26 -8 14 -17 18 -35 13 -19 -5 -23 -2 -20 13 1 10 8 17 15 15 6 -1 9 2 5
8 -3 6 -10 8 -15 5 -4 -3 -13 9 -19 25 -5 17 -15 31 -20 31 -6 1 -15 3 -21 4
-5 1 -13 3 -16 4 -3 0 -2 6 2 12 4 8 9 8 17 0 13 -13 38 -15 34 -3 -4 15 46
102 60 102 7 0 12 3 12 8 -3 19 2 26 10 13 6 -9 14 -11 26 -4 12 7 14 13 6 17
-6 4 -11 2 -11 -5 0 -7 -3 -9 -6 -6 -4 4 -1 14 7 23 11 14 11 18 -4 29 -9 6
-13 15 -9 20 8 9 -43 2 -73 -10 -18 -7 -19 -6 -4 9 32 34 153 40 225 11z"/>
<path d="M194 715 c-8 -31 -1 -41 36 -48 16 -4 30 -11 30 -16 0 -12 -65 -25
-79 -16 -7 4 -11 -4 -11 -20 0 -21 4 -26 16 -21 22 9 75 -21 68 -39 -8 -20
-40 -28 -64 -15 -19 10 -20 9 -14 -17 15 -68 14 -67 35 -44 24 25 42 27 63 5
20 -19 20 -25 2 -18 -8 3 -16 -4 -20 -18 -5 -18 -8 -20 -15 -9 -14 21 -32 -19
-20 -42 6 -9 8 -21 5 -25 -3 -5 1 -9 9 -9 8 0 15 4 15 8 0 5 15 16 33 25 17 9
33 18 35 19 2 2 -4 17 -13 35 -19 36 -25 59 -29 109 -2 19 -8 37 -14 39 -16 5
-15 23 1 20 7 -2 12 7 11 20 0 12 5 22 11 22 12 0 13 55 1 67 -3 4 -24 8 -46
9 -35 2 -41 -1 -46 -21z"/>
</g>
</svg>
