<svg xmlns="http://www.w3.org/2000/svg" width="11.34" height="20.041" viewBox="0 0 11.34 20.041">
  <path id="Icon_metro-money" data-name="Icon metro-money" d="M16.795,15.223c-2.527-.657-3.34-1.331-3.34-2.388,0-1.214,1.119-2.065,3.006-2.065,1.982,0,2.717.946,2.784,2.338H21.7a4.432,4.432,0,0,0-3.574-4.242V6.427h-3.34v2.4c-2.16.473-3.9,1.865-3.9,4.019,0,2.572,2.132,3.852,5.233,4.6,2.789.668,3.34,1.642,3.34,2.689,0,.763-.54,1.987-3.006,1.987-2.294,0-3.2-1.03-3.318-2.338H10.688c.139,2.438,1.96,3.8,4.1,4.264v2.416h3.34V24.074c2.166-.418,3.9-1.67,3.9-3.958,0-3.151-2.706-4.231-5.233-4.893Z" transform="translate(-10.688 -6.427)"/>
</svg>
