<svg id="user" xmlns="http://www.w3.org/2000/svg" width="35.573" height="35.573" viewBox="0 0 35.573 35.573">
  <path id="Path_4" data-name="Path 4" d="M37.573,32.385v1.63a3.607,3.607,0,0,1-3.557,3.557H5.557A3.607,3.607,0,0,1,2,34.016v-1.63c0-4.3,5.04-6.966,9.783-9.042l.445-.222a1.188,1.188,0,0,1,1.112.074,11.5,11.5,0,0,0,6.374,1.927A11.93,11.93,0,0,0,26.086,23.2a1.188,1.188,0,0,1,1.112-.074l.445.222C32.534,25.419,37.573,28.013,37.573,32.385ZM19.787,2c4.891,0,8.819,4.373,8.819,9.783s-3.928,9.783-8.819,9.783-8.819-4.373-8.819-9.783S14.9,2,19.787,2Z" transform="translate(-2 -2)" fill="#393960"/>
</svg>
