<svg xmlns="http://www.w3.org/2000/svg" width="27.504" height="17.503" viewBox="0 0 27.504 17.503">
  <path id="Icon_material-group" data-name="Icon material-group" d="M20.253,15A3.751,3.751,0,1,0,16.5,11.251,3.735,3.735,0,0,0,20.253,15Zm-10,0A3.751,3.751,0,1,0,6.5,11.251,3.735,3.735,0,0,0,10.251,15Zm0,2.5C7.338,17.5,1.5,18.964,1.5,21.877V25H19V21.877C19,18.964,13.164,17.5,10.251,17.5Zm10,0c-.363,0-.775.025-1.213.063A5.276,5.276,0,0,1,21.5,21.877V25H29V21.877C29,18.964,23.166,17.5,20.253,17.5Z" transform="translate(-1.5 -7.5)"/>
</svg>
